<svg width="21" height="23" viewBox="0 0 21 23" fill="none" xmlns="http://www.w3.org/2000/svg">
<path d="M10.374 22.9536C11.1318 22.9536 11.8585 22.6639 12.3943 22.1482C12.9301 21.6324 13.2312 20.933 13.2312 20.2036H7.51688C7.51688 20.933 7.8179 21.6324 8.35372 22.1482C8.88954 22.6639 9.61626 22.9536 10.374 22.9536ZM10.374 3.59088L9.23545 3.81225C7.94397 4.06553 6.78307 4.74052 5.94924 5.72298C5.11541 6.70545 4.65988 7.93503 4.65974 9.20363C4.65974 10.0671 4.46831 12.2245 4.00402 14.3489C3.77545 15.4035 3.46688 16.5021 3.05688 17.4536H17.6912C17.2812 16.5021 16.974 15.4049 16.744 14.3489C16.2797 12.2245 16.0883 10.0671 16.0883 9.20363C16.0878 7.93527 15.6322 6.706 14.7984 5.72382C13.9646 4.74164 12.8038 4.06685 11.5126 3.81363L10.374 3.59088ZM19.2597 17.4536C19.5783 18.0683 19.9469 18.555 20.374 18.8286H0.374023C0.801166 18.555 1.16974 18.0683 1.48831 17.4536C2.77402 14.9786 3.23117 10.4136 3.23117 9.20363C3.23117 5.87613 5.68831 3.09863 8.9526 2.46475C8.93266 2.27356 8.95457 2.08047 9.01693 1.89794C9.07929 1.7154 9.1807 1.54747 9.31463 1.40498C9.44856 1.26249 9.61203 1.14859 9.7945 1.07064C9.97697 0.992696 10.1744 0.952423 10.374 0.952423C10.5737 0.952423 10.7711 0.992696 10.9535 1.07064C11.136 1.14859 11.2995 1.26249 11.4334 1.40498C11.5673 1.54747 11.6688 1.7154 11.7311 1.89794C11.7935 2.08047 11.8154 2.27356 11.7955 2.46475C13.4101 2.78087 14.8617 3.62437 15.9044 4.85244C16.947 6.08051 17.5167 7.61767 17.5169 9.20363C17.5169 10.4136 17.974 14.9786 19.2597 17.4536Z" fill="white"/>
</svg>
