<svg width="18" height="18" viewBox="0 0 18 18" fill="none" xmlns="http://www.w3.org/2000/svg">
<path d="M0 1.89474C0 0.848303 0.848303 0 1.89474 0H6.63158C7.67801 0 8.52632 0.848303 8.52632 1.89474V6.63158C8.52632 7.67801 7.67801 8.52632 6.63158 8.52632H1.89474C0.848303 8.52632 0 7.67801 0 6.63158V1.89474Z" fill="white"/>
<path d="M9.47368 1.89474C9.47368 0.848303 10.322 0 11.3684 0H16.1053C17.1517 0 18 0.848303 18 1.89474V6.63158C18 7.67801 17.1517 8.52632 16.1053 8.52632H11.3684C10.322 8.52632 9.47368 7.67801 9.47368 6.63158V1.89474Z" fill="white" fill-opacity="0.5"/>
<path d="M0 11.3684C0 10.322 0.848303 9.47368 1.89474 9.47368H6.63158C7.67801 9.47368 8.52632 10.322 8.52632 11.3684V16.1053C8.52632 17.1517 7.67801 18 6.63158 18H1.89474C0.848303 18 0 17.1517 0 16.1053V11.3684Z" fill="white"/>
<path d="M9.47368 11.3684C9.47368 10.322 10.322 9.47368 11.3684 9.47368H16.1053C17.1517 9.47368 18 10.322 18 11.3684V16.1053C18 17.1517 17.1517 18 16.1053 18H11.3684C10.322 18 9.47368 17.1517 9.47368 16.1053V11.3684Z" fill="white"/>
</svg>
