<svg width="18" height="18" viewBox="0 0 18 18" fill="none" xmlns="http://www.w3.org/2000/svg">
<path d="M8.99994 5.3479C8.52036 5.3479 8.04547 5.44236 7.60239 5.62589C7.15931 5.80942 6.75672 6.07842 6.4176 6.41754C6.07849 6.75666 5.80948 7.15925 5.62596 7.60233C5.44243 8.04541 5.34797 8.5203 5.34797 8.99988C5.34797 9.47946 5.44243 9.95435 5.62596 10.3974C5.80948 10.8405 6.07849 11.2431 6.4176 11.5822C6.75672 11.9213 7.15931 12.1903 7.60239 12.3739C8.04547 12.5574 8.52036 12.6519 8.99994 12.6519C9.96851 12.6519 10.8974 12.2671 11.5823 11.5822C12.2672 10.8973 12.6519 9.96845 12.6519 8.99988C12.6519 8.03132 12.2672 7.10242 11.5823 6.41754C10.8974 5.73266 9.96851 5.3479 8.99994 5.3479ZM6.47304 8.99988C6.47304 8.3297 6.73926 7.68697 7.21315 7.21309C7.68704 6.7392 8.32977 6.47297 8.99994 6.47297C9.67012 6.47297 10.3128 6.7392 10.7867 7.21309C11.2606 7.68697 11.5269 8.3297 11.5269 8.99988C11.5269 9.67006 11.2606 10.3128 10.7867 10.7867C10.3128 11.2606 9.67012 11.5268 8.99994 11.5268C8.32977 11.5268 7.68704 11.2606 7.21315 10.7867C6.73926 10.3128 6.47304 9.67006 6.47304 8.99988Z" fill="white"/>
<path d="M11.0206 1.51041C10.4277 -0.503469 7.57229 -0.503469 6.97937 1.51041L6.87362 1.8693C6.83221 2.00988 6.75987 2.13942 6.6619 2.24841C6.56393 2.3574 6.4428 2.44308 6.30742 2.49918C6.17203 2.55527 6.0258 2.58036 5.87945 2.57261C5.73311 2.56485 5.59035 2.52444 5.46165 2.45434L5.13313 2.27433C3.28802 1.27077 1.27077 3.28914 2.27545 5.13313L2.45434 5.46165C2.52444 5.59035 2.56485 5.73311 2.57261 5.87945C2.58036 6.0258 2.55527 6.17203 2.49918 6.30742C2.44308 6.44281 2.3574 6.56393 2.24841 6.6619C2.13942 6.75987 2.00988 6.83221 1.8693 6.87362L1.51041 6.97937C-0.503469 7.57229 -0.503469 10.4277 1.51041 11.0206L1.8693 11.1264C2.00988 11.1678 2.13942 11.2401 2.24841 11.3381C2.3574 11.4361 2.44308 11.5572 2.49918 11.6926C2.55527 11.828 2.58036 11.9742 2.57261 12.1205C2.56485 12.2669 2.52444 12.4096 2.45434 12.5383L2.27433 12.8669C1.27077 14.712 3.28802 16.7304 5.13313 15.7245L5.46165 15.5457C5.59035 15.4756 5.73311 15.4352 5.87945 15.4274C6.0258 15.4196 6.17203 15.4447 6.30742 15.5008C6.4428 15.5569 6.56393 15.6426 6.6619 15.7516C6.75987 15.8606 6.83221 15.9901 6.87362 16.1307L6.97937 16.4896C7.57229 18.5035 10.4277 18.5035 11.0206 16.4896L11.1264 16.1307C11.1678 15.9901 11.2401 15.8606 11.3381 15.7516C11.4361 15.6426 11.5572 15.5569 11.6926 15.5008C11.828 15.4447 11.9742 15.4196 12.1205 15.4274C12.2669 15.4352 12.4096 15.4756 12.5383 15.5457L12.8669 15.7257C14.712 16.7304 16.7304 14.7109 15.7245 12.8669L15.5457 12.5383C15.4756 12.4096 15.4352 12.2669 15.4274 12.1205C15.4196 11.9742 15.4447 11.828 15.5008 11.6926C15.5569 11.5572 15.6426 11.4361 15.7516 11.3381C15.8606 11.2401 15.9901 11.1678 16.1307 11.1264L16.4896 11.0206C18.5035 10.4277 18.5035 7.57229 16.4896 6.97937L16.1307 6.87362C15.9901 6.83221 15.8606 6.75987 15.7516 6.6619C15.6426 6.56393 15.5569 6.44281 15.5008 6.30742C15.4447 6.17203 15.4196 6.0258 15.4274 5.87945C15.4352 5.73311 15.4756 5.59035 15.5457 5.46165L15.7257 5.13313C16.7304 3.28802 14.7109 1.27077 12.8669 2.27545L12.5383 2.45434C12.4096 2.52444 12.2669 2.56485 12.1205 2.57261C11.9742 2.58036 11.828 2.55527 11.6926 2.49918C11.5572 2.44308 11.4361 2.3574 11.3381 2.24841C11.2401 2.13942 11.1678 2.00988 11.1264 1.8693L11.0206 1.51041ZM8.05832 1.8288C8.33508 0.889368 9.66492 0.889368 9.94168 1.8288L10.0474 2.1877C10.1363 2.48931 10.2916 2.76721 10.5019 3.00101C10.7122 3.23481 10.9721 3.4186 11.2626 3.53889C11.5531 3.65917 11.8669 3.71292 12.1809 3.69618C12.4949 3.67944 12.8012 3.59265 13.0773 3.44215L13.4047 3.26214C14.2642 2.79524 15.2048 3.73467 14.7367 4.59535L14.5578 4.92387C14.4076 5.19999 14.321 5.50624 14.3044 5.82016C14.2879 6.13409 14.3418 6.44774 14.4622 6.73814C14.5825 7.02854 14.7664 7.28832 15.0002 7.49845C15.234 7.70859 15.5119 7.86374 15.8134 7.95256L16.1712 8.05832C17.1106 8.33508 17.1106 9.66492 16.1712 9.94168L15.8123 10.0474C15.5107 10.1363 15.2328 10.2916 14.999 10.5019C14.7652 10.7122 14.5814 10.9721 14.4611 11.2626C14.3408 11.5531 14.2871 11.8669 14.3038 12.1809C14.3206 12.4949 14.4074 12.8012 14.5578 13.0773L14.7379 13.4047C15.2048 14.2642 14.2653 15.2048 13.4047 14.7367L13.0773 14.5578C12.8011 14.4074 12.4947 14.3206 12.1807 14.3039C11.8666 14.2873 11.5528 14.3411 11.2623 14.4615C10.9717 14.5819 10.7118 14.7658 10.5016 14.9998C10.2914 15.2337 10.1362 15.5117 10.0474 15.8134L9.94168 16.1712C9.66492 17.1106 8.33508 17.1106 8.05832 16.1712L7.95256 15.8123C7.86362 15.5108 7.70837 15.2331 7.49818 14.9994C7.28799 14.7657 7.02819 14.582 6.73781 14.4617C6.44743 14.3415 6.13382 14.2877 5.81995 14.3043C5.50609 14.3209 5.19992 14.4076 4.92387 14.5578L4.59535 14.7379C3.7358 15.2048 2.79524 14.2653 3.26327 13.4047L3.44215 13.0773C3.59286 12.8011 3.67982 12.4947 3.69667 12.1806C3.71352 11.8665 3.65982 11.5526 3.53952 11.2619C3.41922 10.9712 3.23536 10.7112 3.00144 10.5008C2.76752 10.2905 2.48947 10.1352 2.1877 10.0463L1.8288 9.94056C0.889368 9.66379 0.889368 8.33396 1.8288 8.05719L2.1877 7.95143C2.489 7.86245 2.76659 7.70723 3.00016 7.49712C3.23373 7.28701 3.41736 7.02733 3.53762 6.7371C3.65788 6.44686 3.71172 6.1334 3.6952 5.81967C3.67868 5.50594 3.59222 5.19987 3.44215 4.92387L3.26214 4.59535C2.79524 3.7358 3.73467 2.79524 4.59535 3.26327L4.92387 3.44215C5.19992 3.59243 5.50609 3.67906 5.81995 3.69569C6.13382 3.71232 6.44743 3.65853 6.73781 3.53825C7.02819 3.41798 7.28799 3.23427 7.49818 3.00059C7.70837 2.7669 7.86362 2.48916 7.95256 2.1877L8.05832 1.8288Z" fill="white"/>
</svg>
