<svg width="29" height="23" viewBox="0 0 29 23" fill="none" xmlns="http://www.w3.org/2000/svg">
<path d="M16.4704 18.184C16.4704 19.384 16.5424 20.656 16.6864 22C15.9184 22.048 15.4144 22.072 15.1744 22.072C13.8304 22.072 12.8584 21.844 12.2584 21.388C11.6584 20.908 11.3584 20.212 11.3584 19.3C11.3584 18.388 11.6104 16.516 12.1144 13.684C12.6424 10.828 12.9064 8.668 12.9064 7.204C12.9064 5.716 12.4264 4.972 11.4664 4.972C10.9384 4.972 10.3624 5.296 9.73844 5.944C9.11444 6.568 8.52644 7.432 7.97444 8.536C7.42244 9.616 6.95444 11.008 6.57044 12.712C6.21044 14.416 6.03044 16.06 6.03044 17.644C6.03044 19.204 6.10244 20.656 6.24644 22C5.47844 22.048 4.97444 22.072 4.73444 22.072C3.39044 22.072 2.41844 21.844 1.81844 21.388C1.21844 20.908 0.918438 20.116 0.918438 19.012C0.918438 18.748 1.15844 16.96 1.63844 13.648C2.14244 10.336 2.39444 7.72 2.39444 5.8C2.39444 3.856 2.19044 2.08 1.78244 0.471998C3.55844 1.024 4.79444 1.816 5.49044 2.848C6.18644 3.88 6.53444 5.152 6.53444 6.664C6.53444 7.432 6.45044 8.404 6.28244 9.58C7.09844 7.18 8.22644 5.188 9.66644 3.604C11.1304 2.02 12.5344 1.228 13.8784 1.228C15.2464 1.228 16.2304 1.732 16.8304 2.74C17.4544 3.748 17.7664 5.2 17.7664 7.096C18.6784 5.344 19.7224 3.928 20.8984 2.848C22.0744 1.768 23.1544 1.228 24.1384 1.228C25.6024 1.228 26.6344 1.672 27.2344 2.56C27.8584 3.424 28.1704 4.612 28.1704 6.124C28.1704 7.612 27.9304 9.712 27.4504 12.424C26.9944 15.136 26.7664 17.116 26.7664 18.364C26.7664 19.588 26.9224 20.488 27.2344 21.064C27.5464 21.616 28.0744 22.096 28.8184 22.504C28.5064 22.528 28.0624 22.54 27.4864 22.54C25.4704 22.54 24.0304 22.228 23.1664 21.604C22.3264 20.98 21.9064 19.888 21.9064 18.328C21.9064 17.44 22.1464 15.712 22.6264 13.144C23.1064 10.552 23.3464 8.62 23.3464 7.348C23.3464 5.764 22.8664 4.972 21.9064 4.972C21.1864 4.972 20.4064 5.5 19.5664 6.556C18.7504 7.588 18.0304 9.16 17.4064 11.272C16.7824 13.36 16.4704 15.664 16.4704 18.184Z" fill="white"/>
</svg>
